<svg version="1.1" xmlns="http://www.w3.org/2000/svg" viewBox="0 0 285.7691726173257 71" width="285.7691726173257" height="71">
  <!-- svg-source:excalidraw -->
  
  <defs>
    <style class="style-fonts">
      @font-face {
        font-family: "Virgil";
        src: url("https://excalidraw.com/Virgil.woff2");
      }
      @font-face {
        font-family: "Cascadia";
        src: url("https://excalidraw.com/Cascadia.woff2");
      }
      @font-face {
        font-family: "Assistant";
        src: url("https://excalidraw.com/Assistant-Regular.woff2");
      }
    </style>
    
  </defs>
  <rect x="0" y="0" width="285.7691726173257" height="71" fill="#ffffff"></rect><g transform="translate(10 14.913635261702439) rotate(0 95.86798095703125 22.5)"><text x="0" y="0" font-family="Virgil, Segoe UI Emoji" font-size="36px" fill="#1e1e1e" text-anchor="start" style="white-space: pre;" direction="ltr" dominant-baseline="text-before-edge">Hola mundo</text></g><g stroke-linecap="round"><g transform="translate(264.3518357249935 51.16518510169362) rotate(176.8197862031195 -13.301377555008173 -2.761616123775866)" fill-rule="evenodd"><path d="M0 0 C-1.7 -0.78, -7.53 -3.84, -10.21 -4.67 C-12.9 -5.5, -13.39 -5.73, -16.12 -4.98 C-18.85 -4.23, -27.07 -0.08, -26.6 -0.17 C-26.14 -0.26, -17.78 -5.55, -13.35 -5.52 C-8.91 -5.49, -2.22 -0.92, 0 0" stroke="none" stroke-width="0" fill="#ffffff" fill-rule="evenodd"></path><path d="M0 0 C-1.7 -0.78, -7.53 -3.84, -10.21 -4.67 C-12.9 -5.5, -13.39 -5.73, -16.12 -4.98 C-18.85 -4.23, -27.07 -0.08, -26.6 -0.17 C-26.14 -0.26, -17.78 -5.55, -13.35 -5.52 C-8.91 -5.49, -2.22 -0.92, 0 0 M0 0 C-1.7 -0.78, -7.53 -3.84, -10.21 -4.67 C-12.9 -5.5, -13.39 -5.73, -16.12 -4.98 C-18.85 -4.23, -27.07 -0.08, -26.6 -0.17 C-26.14 -0.26, -17.78 -5.55, -13.35 -5.52 C-8.91 -5.49, -2.22 -0.92, 0 0" stroke="#000000" stroke-width="1" fill="none"></path></g></g><mask></mask><g stroke-linecap="round" transform="translate(226.7691726173257 10) rotate(0 24.5 25.5)"><path d="M17.29 1.28 C22.12 -0.5, 29.47 0.71, 34.18 2.56 C38.9 4.41, 43.22 7.8, 45.58 12.4 C47.95 17, 49.51 24.66, 48.38 30.18 C47.26 35.7, 42.96 42.21, 38.85 45.52 C34.74 48.84, 28.9 50.37, 23.72 50.07 C18.55 49.76, 11.58 47.09, 7.8 43.68 C4.02 40.28, 1.91 34.89, 1.05 29.66 C0.2 24.43, -0.25 17.13, 2.69 12.31 C5.64 7.49, 15.29 2.64, 18.72 0.75 C22.14 -1.13, 23.19 0.63, 23.24 1.02 M21.59 1.37 C26.87 0.02, 34.04 0.22, 38.29 2.6 C42.55 4.99, 45.68 10.27, 47.1 15.69 C48.53 21.11, 48.66 30.05, 46.82 35.13 C44.98 40.21, 40.41 43.61, 36.08 46.18 C31.74 48.75, 25.85 51.32, 20.8 50.55 C15.75 49.77, 9 45.54, 5.77 41.52 C2.54 37.5, 1.44 31.85, 1.44 26.44 C1.43 21.03, 2.76 13.18, 5.74 9.06 C8.73 4.94, 16.72 3.16, 19.32 1.73 C21.92 0.3, 21.17 0.09, 21.35 0.48" stroke="#000000" stroke-width="1" fill="none"></path></g><g stroke-linecap="round" transform="translate(249.09721154979638 27.635773104052987) rotate(0 3.068176319781628 0.5844145371013383)"><path d="M0.29 0 C1.89 0, 3.48 0, 5.84 0 C6.04 0, 6.14 0.1, 6.14 0.29 C6.14 0.47, 6.14 0.65, 6.14 0.88 C6.14 1.07, 6.04 1.17, 5.84 1.17 C4.46 1.17, 3.08 1.17, 0.29 1.17 C0.1 1.17, 0 1.07, 0 0.88 C0 0.71, 0 0.54, 0 0.29 C0 0.1, 0.1 0, 0.29 0" stroke="none" stroke-width="0" fill="#000000"></path><path d="M0.29 0 C1.45 0, 2.61 0, 5.84 0 M0.29 0 C2.39 0, 4.49 0, 5.84 0 M5.84 0 C6.04 0, 6.14 0.1, 6.14 0.29 M5.84 0 C6.04 0, 6.14 0.1, 6.14 0.29 M6.14 0.29 C6.14 0.47, 6.14 0.65, 6.14 0.88 M6.14 0.29 C6.14 0.45, 6.14 0.6, 6.14 0.88 M6.14 0.88 C6.14 1.07, 6.04 1.17, 5.84 1.17 M6.14 0.88 C6.14 1.07, 6.04 1.17, 5.84 1.17 M5.84 1.17 C4.12 1.17, 2.4 1.17, 0.29 1.17 M5.84 1.17 C3.67 1.17, 1.49 1.17, 0.29 1.17 M0.29 1.17 C0.1 1.17, 0 1.07, 0 0.88 M0.29 1.17 C0.1 1.17, 0 1.07, 0 0.88 M0 0.88 C0 0.68, 0 0.49, 0 0.29 M0 0.88 C0 0.75, 0 0.62, 0 0.29 M0 0.29 C0 0.1, 0.1 0, 0.29 0 M0 0.29 C0 0.1, 0.1 0, 0.29 0" stroke="#000000" stroke-width="4" fill="none"></path></g><g stroke-linecap="round"><g transform="translate(234.04994151574977 25.113773799462706) rotate(0 5.558601618641376 6.280093145275032)" fill-rule="evenodd"><path d="M0 0 C2.4 0.08, 11.9 -0.88, 14.42 0.47 C16.93 1.82, 16.04 6.09, 15.07 8.1 C14.1 10.12, 11.24 12.23, 8.6 12.56 C5.96 12.89, 1.32 11.73, -0.78 10.11 C-2.87 8.49, -4.08 4.53, -3.95 2.84 C-3.82 1.16, -0.66 0.47, 0 0" stroke="none" stroke-width="0" fill="#000000" fill-rule="evenodd"></path><path d="M0 0 C2.4 0.08, 11.9 -0.88, 14.42 0.47 C16.93 1.82, 16.04 6.09, 15.07 8.1 C14.1 10.12, 11.24 12.23, 8.6 12.56 C5.96 12.89, 1.32 11.73, -0.78 10.11 C-2.87 8.49, -4.08 4.53, -3.95 2.84 C-3.82 1.16, -0.66 0.47, 0 0 M0 0 C2.4 0.08, 11.9 -0.88, 14.42 0.47 C16.93 1.82, 16.04 6.09, 15.07 8.1 C14.1 10.12, 11.24 12.23, 8.6 12.56 C5.96 12.89, 1.32 11.73, -0.78 10.11 C-2.87 8.49, -4.08 4.53, -3.95 2.84 C-3.82 1.16, -0.66 0.47, 0 0" stroke="#000000" stroke-width="1" fill="none"></path></g></g><mask></mask><g stroke-linecap="round"><g transform="translate(257.10509500439605 25.084553072608742) rotate(0 5.558601618641376 6.280093145275032)" fill-rule="evenodd"><path d="M0 0 C2.4 0.08, 11.9 -0.88, 14.42 0.47 C16.93 1.82, 16.04 6.09, 15.07 8.1 C14.1 10.12, 11.24 12.23, 8.6 12.56 C5.96 12.89, 1.32 11.73, -0.78 10.11 C-2.87 8.49, -4.08 4.53, -3.95 2.84 C-3.82 1.16, -0.66 0.47, 0 0" stroke="none" stroke-width="0" fill="#000000" fill-rule="evenodd"></path><path d="M0 0 C2.4 0.08, 11.9 -0.88, 14.42 0.47 C16.93 1.82, 16.04 6.09, 15.07 8.1 C14.1 10.12, 11.24 12.23, 8.6 12.56 C5.96 12.89, 1.32 11.73, -0.78 10.11 C-2.87 8.49, -4.08 4.53, -3.95 2.84 C-3.82 1.16, -0.66 0.47, 0 0 M0 0 C2.4 0.08, 11.9 -0.88, 14.42 0.47 C16.93 1.82, 16.04 6.09, 15.07 8.1 C14.1 10.12, 11.24 12.23, 8.6 12.56 C5.96 12.89, 1.32 11.73, -0.78 10.11 C-2.87 8.49, -4.08 4.53, -3.95 2.84 C-3.82 1.16, -0.66 0.47, 0 0" stroke="#000000" stroke-width="1" fill="none"></path></g></g><mask></mask></svg>